<svg width="1223" height="528" viewBox="0 0 1223 528" fill="none" xmlns="http://www.w3.org/2000/svg">
<path d="M603.249 0.621185C596.865 2.06561 590.823 5.98618 587.947 10.5258C580.881 21.6685 587.606 35.8651 601.836 39.6618C605.93 40.7761 612.07 40.7761 616.164 39.6618C625.959 37.0206 632.879 29.0556 632.879 20.3891C632.879 14.6114 630.637 10.0306 625.813 5.94491C619.916 0.95134 610.998 -1.15339 603.249 0.621185Z" fill="#2926A6"/>
<path d="M520.306 1.81806C510.657 2.80853 503.737 4.5831 496.573 7.80209C485.559 12.7957 474.936 18.7384 448.181 34.9985C412.704 56.4997 395.55 65.3313 371.671 74.3693C361.144 78.3311 359 79.3216 359 80.1469C359 81.4676 361.339 83.5723 364.166 84.8104C368.552 86.7087 374.058 87.2865 381.904 86.6675C392.187 85.8008 396.817 84.6866 407.294 80.5184C421.963 74.6994 447.889 61.2869 463.776 51.3411C469.77 47.5856 479.322 39.6206 482.197 36.0302C484.682 32.8525 485.559 32.1096 486.388 32.3985C486.924 32.5636 487.07 33.8017 487.07 37.8461C487.119 45.9348 489.068 52.2903 493.405 58.3156C495.988 61.9472 502.762 67.5599 506.856 69.4995C514.02 72.8836 519.283 73.9153 528.981 73.874C535.365 73.874 535.413 73.874 535.413 74.8232C535.413 75.3185 534.78 76.2676 533.951 76.928C531.125 79.239 530.832 82.7469 533.172 87.204C538.532 97.48 553.25 106.312 567.236 107.715C574.351 108.416 583.951 107.054 589.994 104.496L592.674 103.34L592.528 97.1498C592.236 82.2517 591.797 71.728 591.456 71.563C591.261 71.4392 589.361 71.728 587.265 72.182C575.423 74.7407 565.433 73.0074 559.146 67.2297C555.979 64.3409 554.078 61.1631 553.542 57.8616C552.908 53.776 553.298 53.0331 558.756 48.576C567.431 41.4777 570.452 36.9381 570.891 30.5001C571.037 28.024 570.842 26.1669 570.306 24.3098C568.698 19.0273 564.263 12.383 559.975 8.91636C552.421 2.76726 537.265 0.0434875 520.306 1.81806Z" fill="#2926A6"/>
<path d="M678.932 1.653C673.961 2.1895 667.236 3.9228 663.483 5.61484C657.879 8.17352 653.688 12.3004 650.131 18.6559C647.694 23.0717 646.866 26.332 647.109 30.5001C647.548 36.9381 650.569 41.4777 659.244 48.576C664.702 53.0331 665.092 53.776 664.458 57.8616C663.922 61.1631 662.021 64.3409 658.854 67.2297C652.567 73.0074 642.577 74.7407 630.735 72.182C628.639 71.728 626.739 71.4392 626.544 71.563C626.203 71.728 625.764 82.2517 625.472 97.1499L625.326 103.34L628.006 104.496C634.049 107.054 643.649 108.416 650.764 107.715C664.751 106.312 679.468 97.48 684.828 87.204C687.168 82.7469 686.875 79.239 684.049 76.928C683.22 76.2677 682.587 75.3185 682.587 74.8232C682.587 73.874 682.636 73.874 689.068 73.874C698.717 73.9153 703.981 72.8836 711.144 69.4995C715.238 67.5599 722.012 61.9473 724.595 58.3156C728.932 52.2903 730.881 45.9348 730.93 37.8461C730.93 30.8303 731.515 30.624 735.803 36.0302C738.678 39.6206 748.23 47.5856 754.224 51.3411C770.111 61.2869 796.037 74.6994 810.706 80.5184C821.183 84.6866 825.813 85.8008 836.096 86.6675C843.942 87.2865 849.448 86.7087 853.834 84.8104C856.661 83.5723 859 81.4676 859 80.147C859 79.3216 856.856 78.3311 846.329 74.3693C822.45 65.3313 805.296 56.4997 769.819 34.9985C748.376 21.9574 742.236 18.4083 733.172 13.6623C724.351 8.99891 717.772 6.02753 713.971 4.91326C703.786 1.90061 689.361 0.580002 678.932 1.653Z" fill="#2926A6"/>
<path d="M593.259 43.9951C593.113 44.2015 593.211 50.722 593.454 58.5632C593.649 66.4043 594.088 80.766 594.38 90.5468C594.673 100.286 595.111 115.432 595.355 124.181C595.598 132.93 596.037 148.778 596.329 159.466C596.622 170.114 596.866 179.853 596.963 181.05C597.012 182.412 596.866 183.196 596.524 183.196C595.355 183.196 584.195 180.101 579.078 178.368C565.823 173.869 557.294 168.628 551.934 161.777C548.328 157.155 547.012 153.317 546.719 146.343C546.476 139.327 546.671 138.956 549.936 141.555C551.203 142.587 552.811 143.743 553.493 144.114C558.367 146.632 567.041 147.251 572.548 145.476C580.881 142.794 587.752 137.717 588.386 133.756C588.581 132.394 588.435 131.94 587.07 130.66C583.659 127.359 577.08 125.667 567.577 125.667C554.273 125.667 545.988 128.267 537.947 134.994C530.735 141.019 527.08 148.2 527.08 156.371C527.129 165.78 532.051 174.612 541.895 182.99C548.864 188.891 555.784 193.142 566.992 198.466L571.037 200.405L566.749 203.047C561.534 206.266 554.468 212.126 551.349 215.923C540.53 228.84 538.873 243.655 546.427 258.842C551.495 268.995 560.365 277.249 576.057 286.328L580.296 288.763L576.398 291.074C561.632 299.823 553.688 308.407 550.667 318.848C549.546 322.851 549.546 330.94 550.715 335.686C554.078 349.387 562.752 361.603 575.862 371.177L580.248 374.396L577.665 376.707C569.234 384.259 565.14 392.472 565.14 401.923C565.14 415.129 571.281 423.176 591.261 436.052L592.674 436.96L588.678 440.097C578.981 447.69 574.887 454.582 574.887 463.249C574.887 469.563 577.08 475.258 581.661 480.871C584.828 484.75 586.924 486.483 587.314 485.617C587.509 485.245 587.07 482.15 586.388 478.683C584.926 471.503 584.828 468.284 585.852 464.941C586.973 461.226 588.776 458.668 592.674 455.201C596.135 452.147 603.883 446.989 604.419 447.443C604.663 447.649 605.15 461.185 606.076 496.635C606.417 507.984 606.807 519.664 606.953 522.635L607.294 528H609H610.706L611.047 523.048C611.193 520.324 611.583 508.727 611.924 497.254C612.85 462.63 613.337 447.649 613.581 447.443C614.166 446.947 620.209 450.909 624.984 454.871C627.713 457.141 629.029 458.668 630.589 461.309L632.636 464.776V469.769C632.636 473.277 632.294 476.29 631.466 479.839C630.832 482.604 630.491 485.163 630.637 485.575C630.93 486.153 631.174 486.071 632.392 485.08C634.487 483.347 638.581 478.271 639.994 475.547C642.48 470.76 643.259 467.376 643.016 462.176C642.577 453.509 638.873 447.525 629.517 440.344C627.324 438.694 625.569 437.208 625.569 437.043C625.569 436.836 627.47 435.475 629.858 433.989C646.329 423.465 652.86 414.427 652.908 401.923C652.908 392.596 648.766 384.259 640.335 376.707L637.752 374.396L642.577 370.847C655.394 361.355 663.63 349.758 667.333 335.851C668.6 331.229 668.454 322.232 667.041 317.94C663.873 307.953 656.32 299.905 642.333 291.528L637.752 288.763L641.944 286.328C650.033 281.623 658.318 275.639 662.411 271.512C668.308 265.528 673.23 257.109 675.131 249.639C676.398 244.563 676.3 234.948 674.887 230.573C671.524 220.049 663.142 210.269 651.251 203.047L646.963 200.405L652.275 197.888C678.201 185.425 690.969 171.558 690.92 156C690.871 142.092 678.347 129.505 661.583 126.41C656.368 125.461 644.819 125.461 640.676 126.368C636.242 127.359 632.733 128.927 630.93 130.66C629.614 131.94 629.419 132.394 629.614 133.714C630.248 137.676 637.46 143 645.696 145.6C649.546 146.797 656.076 146.797 660.218 145.641C663.922 144.568 665.14 143.908 668.064 141.597C669.283 140.606 670.55 139.905 670.842 140.029C671.817 140.565 671.524 149.603 670.404 153.317C667.772 162.19 660.657 169.082 648.474 174.653C642.187 177.501 630.053 181.422 621.719 183.237C621.232 183.361 621.086 182.577 621.135 179.275C621.232 174.199 623.62 90.2579 624.595 58.8108C624.838 50.8458 624.936 44.2015 624.79 44.0364C624.497 43.6237 593.552 43.5825 593.259 43.9951ZM598.717 242.087C599.01 255.004 599.4 266.519 599.497 267.757C599.741 269.655 599.643 269.903 598.961 269.696C596.622 268.953 592.09 265.941 587.801 262.268C580.394 255.954 577.324 250.341 577.324 243.243C577.324 236.887 579.809 231.976 585.803 226.652C588.873 223.887 596.573 218.811 597.84 218.729C597.986 218.688 598.376 229.211 598.717 242.087ZM624.302 220.916C631.174 224.795 636.973 230.449 639.263 235.484C640.725 238.786 641.066 245.141 639.994 248.773C638.337 254.303 634.244 259.585 628.055 264.207C624.936 266.56 619.429 269.861 618.649 269.861C618.405 269.861 618.357 269.16 618.503 268.293C618.6 267.468 618.99 255.954 619.283 242.706C619.624 229.5 619.965 218.688 620.111 218.688C620.257 218.688 622.109 219.678 624.302 220.916ZM601.593 338.574C601.836 346.498 601.934 353.101 601.885 353.184C601.641 353.473 595.598 349.593 593.454 347.819C587.947 343.114 584.634 336.759 584.634 330.733C584.634 323.841 587.899 318.807 596.427 312.492L600.472 309.521L600.813 316.826C601.008 320.829 601.349 330.61 601.593 338.574ZM625.715 315.835C628.055 317.857 629.614 319.756 631.027 322.149C632.83 325.203 633.074 326.029 633.269 329.165C633.708 336.057 630.589 342.66 624.546 347.819C622.45 349.593 616.359 353.473 616.164 353.184C616.066 353.101 616.31 344.559 616.602 334.241C616.944 323.924 617.236 314.102 617.236 312.451L617.285 309.397L619.867 311.172C621.232 312.162 623.912 314.267 625.715 315.835ZM603.542 407.618C603.737 413.561 603.786 418.43 603.639 418.43C602.957 418.389 597.986 412.488 596.671 410.177C595.452 407.948 595.16 406.958 595.16 404.399C595.111 400.52 596.427 398.126 600.228 394.907L602.908 392.637L603.055 394.701C603.103 395.815 603.347 401.634 603.542 407.618ZM618.698 395.567C621.866 398.621 622.889 400.808 622.889 404.399C622.889 408.567 621.427 411.25 616.066 416.903C615.287 417.729 614.507 418.43 614.361 418.43C614.214 418.43 614.263 414.592 614.409 409.888C614.604 405.142 614.751 399.405 614.799 397.053C614.848 393.009 614.897 392.843 615.774 393.215C616.261 393.462 617.577 394.494 618.698 395.567Z" fill="#2926A6"/>
<path d="M477.567 46.4713C476.739 46.884 473.23 49.2776 469.77 51.8363C445.403 69.8296 425.764 81.1787 406.807 88.2357C400.277 90.7119 399.156 91.6198 400.472 93.5594C401.544 95.2515 404.078 96.0768 409.828 96.5721C422.012 97.6038 430.491 95.3753 447.694 86.75C463.727 78.6613 484.975 65.0837 486.875 61.6583C487.704 60.2139 487.704 60.1727 485.803 56.5822C484.097 53.4458 483.269 51.3823 481.807 47.0078C481.417 45.6872 479.663 45.4808 477.567 46.4713Z" fill="#2926A6"/>
<path d="M736.193 46.8427C735.901 47.4205 735.706 48.1221 735.706 48.4109C735.706 49.2776 733.951 53.3632 732.051 56.9124C730.296 60.1727 730.296 60.2139 731.125 61.6583C733.025 65.0837 754.273 78.6613 770.306 86.75C787.509 95.3753 795.988 97.6038 808.171 96.5721C813.922 96.0768 816.456 95.2515 817.528 93.5594C818.844 91.6198 817.723 90.7119 811.193 88.2357C791.7 80.9723 772.645 69.8296 745.257 49.7316C739.556 45.5221 737.119 44.738 736.193 46.8427Z" fill="#2926A6"/>
<path d="M488.63 65.4551C488.24 65.6202 484.634 68.3852 480.589 71.6868C466.554 83.2009 456.71 89.4738 440.238 97.5213L434.487 100.369L434.634 101.813C434.78 103.175 434.975 103.34 436.973 103.877C439.994 104.661 449.595 104.743 453.542 104.001C460.998 102.639 469.283 99.007 478.98 92.9404C486.29 88.3595 502.031 77.1756 502.811 76.02C503.737 74.5344 502.762 73.3788 499.156 71.563C497.353 70.6963 494.721 68.8805 493.259 67.5599C490.676 65.2075 490.14 65.0012 488.63 65.4551Z" fill="#2926A6"/>
<path d="M724.789 67.5186C723.279 68.8805 720.647 70.6963 718.844 71.563C715.238 73.3788 714.263 74.5344 715.189 76.02C715.969 77.1756 731.71 88.3595 739.019 92.9404C748.717 99.007 757.002 102.639 764.458 104.001C768.405 104.743 778.006 104.661 781.027 103.877C783.025 103.34 783.22 103.175 783.366 101.813L783.513 100.369L777.762 97.5213C761.144 89.3913 751.398 83.1596 737.363 71.6455C733.318 68.3027 729.468 65.4964 728.737 65.3726C727.665 65.125 727.129 65.4139 724.789 67.5186Z" fill="#2926A6"/>
<path d="M507.197 76.474C506.563 76.7629 505.394 77.7533 504.614 78.62C499.789 84.0675 490.384 92.0737 478.737 100.616C472.938 104.867 472.255 105.61 473.035 106.848C474.253 108.829 479.273 109.696 484.585 108.912C498.62 106.848 524.692 88.1119 524.692 80.0231C524.692 79.3628 524.546 78.7438 524.351 78.6613C524.107 78.5375 521.768 78.2486 519.088 77.9597C516.456 77.7121 512.947 77.1343 511.29 76.6803C509.682 76.2677 508.366 75.8962 508.366 75.8962C508.366 75.9375 507.83 76.1851 507.197 76.474Z" fill="#2926A6"/>
<path d="M706.417 76.7216C704.906 77.1343 701.495 77.7121 698.864 77.9597C696.232 78.2486 693.893 78.5375 693.698 78.6613C693.454 78.7438 693.308 79.3628 693.308 80.0231C693.308 88.1119 719.38 106.848 733.415 108.912C738.727 109.696 743.747 108.829 744.965 106.848C745.745 105.61 745.062 104.867 739.263 100.616C727.519 92.0325 717.967 83.8612 713.288 78.5375C712.168 77.2168 709.78 75.6899 709.244 75.9375C709.195 75.9788 707.928 76.3089 706.417 76.7216Z" fill="#2926A6"/>
<path d="M724.281 367V345.344L746.641 341.125V188.266L724.281 184.047V162.25H880.234V214.984H852.672L850.281 189.531H782.078V247.469H853.938V274.891H782.078V340H854.078L856.469 313.984H883.75V367H724.281Z" fill="#2926A6"/>
<path d="M911.312 367V344.781L992.031 240.438H944.359L940.281 266.312H913.984V214.844H1034.92V238.047L956.453 341.125H1008.77L1013.83 313.984H1039.14V367H911.312Z" fill="#2926A6"/>
<path d="M1098.06 428.453C1095.16 428.453 1091.78 428.172 1087.94 427.609C1084.19 427.047 1080.91 426.344 1078.09 425.5L1082.03 398.922C1083.72 399.203 1085.73 399.438 1088.08 399.625C1090.52 399.812 1092.44 399.906 1093.84 399.906C1099.75 399.906 1104.72 398.031 1108.75 394.281C1112.78 390.625 1116.06 385.516 1118.59 378.953L1123.23 366.719L1071.2 239.172L1053.48 236.641V214.844H1127.17V236.641L1108.47 239.453L1134.91 310.328L1139.55 323.547H1140.39L1171.61 239.312L1152.91 236.641V214.844H1222.8V236.641L1206.34 239.031L1147.42 389.922C1144.61 397.047 1141.09 403.516 1136.88 409.328C1132.75 415.234 1127.5 419.875 1121.12 423.25C1114.84 426.719 1107.16 428.453 1098.06 428.453Z" fill="#2926A6"/>
<path d="M0.28125 367V345.344L22.7812 340.984V188.547L0.28125 184.047V162.25H22.7812H86.0625C104.344 162.25 120.328 166.562 134.016 175.188C147.797 183.812 158.531 195.672 166.219 210.766C173.906 225.859 177.75 243.156 177.75 262.656V266.734C177.75 285.953 174 303.156 166.5 318.344C159 333.438 148.406 345.344 134.719 354.062C121.125 362.688 105.234 367 87.0469 367H0.28125ZM58.2188 339.719H85.2188C97.2188 339.719 107.438 336.531 115.875 330.156C124.406 323.688 130.922 314.969 135.422 304C139.922 292.938 142.172 280.516 142.172 266.734V262.516C142.172 248.359 139.922 235.844 135.422 224.969C130.922 214 124.406 205.375 115.875 199.094C107.438 192.812 97.2188 189.672 85.2188 189.672H58.2188V339.719Z" fill="#2926A6"/>
<path d="M268.031 369.953C253.406 369.953 240.844 366.672 230.344 360.109C219.844 353.547 211.781 344.453 206.156 332.828C200.531 321.109 197.719 307.656 197.719 292.469V289.516C197.719 274.422 200.531 261.062 206.156 249.438C211.781 237.812 219.844 228.672 230.344 222.016C240.844 215.359 253.312 212.031 267.75 212.031C282.375 212.031 294.938 215.359 305.438 222.016C315.938 228.578 324 237.672 329.625 249.297C335.25 260.922 338.062 274.328 338.062 289.516V292.469C338.062 307.656 335.25 321.109 329.625 332.828C324 344.453 315.938 353.547 305.438 360.109C295.031 366.672 282.562 369.953 268.031 369.953ZM268.031 342.672C275.906 342.672 282.375 340.562 287.438 336.344C292.594 332.031 296.438 326.125 298.969 318.625C301.5 311.031 302.766 302.312 302.766 292.469V289.516C302.766 279.766 301.5 271.141 298.969 263.641C296.438 256.141 292.594 250.234 287.438 245.922C282.281 241.609 275.719 239.453 267.75 239.453C259.969 239.453 253.5 241.609 248.344 245.922C243.188 250.234 239.344 256.141 236.812 263.641C234.375 271.141 233.156 279.766 233.156 289.516V292.469C233.156 302.312 234.375 311.031 236.812 318.625C239.344 326.125 243.188 332.031 248.344 336.344C253.594 340.562 260.156 342.672 268.031 342.672Z" fill="#2926A6"/>
<path d="M431.156 369.953C416.906 369.953 404.531 366.719 394.031 360.25C383.625 353.688 375.562 344.688 369.844 333.25C364.219 321.719 361.406 308.453 361.406 293.453V288.531C361.406 273.812 364.219 260.688 369.844 249.156C375.469 237.625 383.484 228.578 393.891 222.016C404.391 215.359 416.766 212.031 431.016 212.031C444.047 212.031 455.391 214.141 465.047 218.359C474.703 222.484 482.625 227.641 488.812 233.828L488.953 274.469H461.953L456.75 247.609C454.125 244.891 450.797 242.734 446.766 241.141C442.734 239.453 438.328 238.609 433.547 238.609C425.766 238.609 419.109 240.719 413.578 244.938C408.141 249.156 403.969 255.016 401.062 262.516C398.25 269.922 396.844 278.594 396.844 288.531V293.453C396.844 304.141 398.297 313.141 401.203 320.453C404.109 327.766 408.141 333.297 413.297 337.047C418.547 340.797 424.547 342.672 431.297 342.672C439.453 342.672 446.062 340.469 451.125 336.062C456.281 331.656 459.656 325.562 461.25 317.781H491.906L492.328 318.625C491.203 328.562 488.25 337.422 483.469 345.203C478.781 352.891 472.125 358.938 463.5 363.344C454.969 367.75 444.188 369.953 431.156 369.953Z" fill="#2926A6"/>
</svg>
